PathFileType	4	(X/Y/Z)	Patient4_TMGait_0pt4_03_left_42.trc.trc
DataRate	CameraRate	NumFrames	NumMarkers	Units	OrigDataRate	OrigDataStartFrame	OrigNumFrames
74.468085106383	74.468085106383	4	33	mm	74.468085106383	18	       141
Frame#	Time	Sacral			L.Shoulder			Chest			R.Shoulder			Neck			R.ASIS			L.ASIS			R.Thigh.Superior			R.Thigh.Lateral			R.Thigh.Inferior			R.Patella			L.Thigh.Superior			L.Thigh.Lateral			L.Thigh.Inferior			L.Patella			L.Shank.Superior			L.Shank.Lateral			L.Shank.Inferior			R.Shank.Superior			R.Shank.Lateral			R.Shank.Inferior			R.Heel			R.Midfoot.Superior			R.Midfoot.Lateral			R.Toe			L.Heel			L.Midfoot.Lateral			L.Midfoot.Superior			L.Toe			L.Elbow			L.Wrist			R.Elbow			R.Wrist			
		X1	Y1	Z1	X2	Y2	Z2	X3	Y3	Z3	X4	Y4	Z4	X5	Y5	Z5	X6	Y6	Z6	X7	Y7	Z7	X8	Y8	Z8	X9	Y9	Z9	X10	Y10	Z10	X11	Y11	Z11	X12	Y12	Z12	X13	Y13	Z13	X14	Y14	Z14	X15	Y15	Z15	X16	Y16	Z16	X17	Y17	Z17	X18	Y18	Z18	X19	Y19	Z19	X20	Y20	Z20	X21	Y21	Z21	X22	Y22	Z22	X23	Y23	Z23	X24	Y24	Z24	X25	Y25	Z25	X26	Y26	Z26	X27	Y27	Z27	X28	Y28	Z28	X29	Y29	Z29	X30	Y30	Z30	X31	Y31	Z31	X32	Y32	Z32	X33	Y33	Z33	

18	55.868285714286	955.917874898649	1005.792825342786	533.240480062245	1098.382871377648	1431.806802824741	322.899376676554	1234.306194170210	1361.719096152270	456.785935468502	1194.151422141079	1436.433778094963	645.078022973774	1115.442925180645	1492.891336057429	478.185581831514	1200.846688992312	937.065244501255	602.679415312538	1136.509766014086	964.174646864545	335.086197264282	1209.858233417041	728.885282762515	571.084029018758	1126.036326166586	627.209516510129	645.883137444913	1181.273993237081	568.166107004660	556.676095276723	1170.151679607877	481.485046051148	565.129204125014	1215.964923373783	777.544925467303	358.629102085868	1165.157838688710	650.179526244245	283.939850605631	1270.523717199839	590.533950452989	341.169926127633	1298.241190211430	527.397767361645	334.251567778763	1281.359877784246	456.405192668222	323.384247662928	1215.341207202657	326.183373057473	272.153979858233	1306.749727513252	227.145424618502	321.041019782229	1133.233173045306	394.557659599476	575.980677588037	1056.676928579759	298.198559161441	644.257419932054	1081.593984842330	200.345213837572	577.162613680532	934.011199707198	43.053564270162	553.161335297666	1104.859642300859	95.838687519879	585.516783526002	1017.986492844401	37.150054553590	627.341296474094	1226.025300647665	43.996374774641	612.588394101708	1228.453361949059	46.489736879497	360.644818937311	1300.776866650996	50.174957193136	279.202297626612	1370.574048048403	130.258496428520	297.221411084886	1504.184862081487	103.223772708392	268.368443070979	977.322664728012	1089.980528182544	251.601974131052	977.070431928591	829.826408983351	234.823418861159	1327.326668915126	1127.211921070999	763.266707212970	1526.613455254714	1235.462329404470	662.146481829656	
19	55.881714285714	956.693862384386	1005.116924400262	531.569145262621	1097.764567373660	1431.117961655927	320.924434548517	1234.062537544904	1361.401405461495	454.609254522069	1194.074644185756	1436.182168515398	642.850935118569	1115.003195511615	1492.337490381963	476.100380256325	1201.492997177131	936.675173351364	601.346090330036	1137.500619837331	963.303917602280	333.532282174168	1208.943646094533	728.022469868531	570.339881023956	1124.013703911298	626.928751833620	645.180411256381	1178.741223846629	567.292620924682	556.313439414767	1166.804501479641	480.718375601600	564.738161135970	1216.646199511362	775.855756683928	357.257382713294	1164.227142539755	648.092952762719	283.945366157774	1269.474978185080	588.174532289820	340.683971856568	1296.583506968138	525.068892834266	334.655613021564	1279.726433555358	454.178937454270	324.031476990007	1213.645549338034	323.989058258106	273.285464214650	1304.830101649754	225.086585496369	322.549189187827	1129.516041537809	394.100567338495	575.685763060916	1052.407656108103	298.240313710577	644.155618391634	1076.772542409338	200.123788221455	577.151300211179	928.616753769294	43.091360031707	553.228496728676	1099.462380245072	95.774457852843	585.600670245220	1012.560168296794	37.120546222446	627.412250636739	1220.592886480558	43.870469807636	612.640381711487	1225.828402813027	45.645194159534	362.612425139668	1298.287990482260	48.342818730096	281.288824846264	1368.829475926736	127.451986158403	299.284582935840	1502.093309583386	98.851079718058	270.819570845068	975.140007982917	1089.804956802155	251.149892628134	973.733496319080	829.576172862590	235.052309271037	1331.341131079677	1128.258165053991	758.817003456542	1527.324889450772	1241.595663260772	657.242386902878	
20	55.895142857143	957.696501432251	1004.265649232250	529.567542199781	1097.154986119581	1430.309745689172	318.719548359486	1233.780073688976	1361.121939960186	452.323412076012	1193.719929614171	1435.907548023545	640.493223380594	1114.426592709642	1491.707879128797	473.809144130664	1202.353612758848	936.236384927673	599.942616208045	1138.916292682269	962.323153056527	331.891878551224	1208.241032767161	727.091137625934	569.580417242740	1122.015579875797	626.639387987047	644.371423316555	1176.310192058647	566.357195452241	555.945991550438	1163.496489608462	479.901330110474	564.288772757739	1217.823944686607	774.033535031381	355.757724042375	1163.649855400708	645.880219646764	283.933616457377	1268.780124580708	585.746592978405	340.215548637622	1295.077976858479	522.378189830739	335.060358850203	1277.929124388911	451.462679334980	324.700849302270	1211.020662233430	321.644050169003	274.624244395785	1301.487915570110	222.424437735826	324.243080273251	1125.838841732641	393.614913465177	575.323796518091	1048.130363778320	298.297076407935	643.961164372003	1071.961874444782	199.890103397712	577.108284880074	923.226358168249	43.094860539848	553.290021167045	1094.057074557220	95.708720444636	585.673595564708	1007.133683247776	37.073112427455	627.476871132485	1215.157998191748	43.743450262089	612.717390141512	1220.837632223556	44.698378807200	364.929050637332	1293.178300861434	46.284719897593	283.494611916900	1364.970306339847	123.888766959083	301.527019026784	1497.616901724718	93.015824846620	272.920455535448	973.582705391651	1089.333061937599	250.247777951699	971.348587150369	829.039499799231	234.748473082360	1334.666054023876	1129.131971076096	754.444973084958	1528.008676512957	1246.426131266578	652.589305049350	
21	55.908571428571	958.893612007126	1003.264142321160	527.256095225062	1096.590017956427	1429.379234138572	316.272831004154	1233.481387427634	1360.869585330672	449.924462394475	1193.110892018521	1435.607267696845	638.003422942755	1113.743835625874	1491.005580031668	471.305326404938	1203.407887951756	935.740021853582	598.462974599066	1140.712448133539	961.249573246629	330.175046847307	1207.773174423189	726.087477555191	568.801427266711	1120.077824182424	626.329242130087	643.434618005027	1174.018187607606	565.359680650351	555.533873139427	1160.279943197043	479.019440455652	563.742208177823	1219.398460170659	772.083998864949	354.187927108422	1163.379623136093	643.609484090224	283.862837166604	1268.371886544622	583.304952331455	339.789446846352	1293.663733037071	519.429000378431	335.498022173857	1276.030989607055	448.384449535804	325.365817953926	1207.755057028151	319.181810242341	276.010878330289	1297.108911723733	219.307069076492	326.028912126884	1122.229399104925	393.086712799704	574.859866067457	1043.873397353554	298.367817632382	643.657011574267	1067.172706512513	199.640349778696	577.016801211139	917.837537036777	43.064842361766	553.347199851811	1088.644546767937	95.644493387291	585.729397757486	1001.710069878124	37.008744087406	627.533418889407	1209.723568320838	43.609251853895	612.819397820791	1214.069754878811	43.655922208372	367.352341949523	1286.130557688492	44.122209736740	285.649824690002	1359.534417235157	119.806630451255	303.881463904821	1491.389846364279	86.167592537788	274.748177342824	972.663266927673	1088.549629466240	248.879941995907	969.923637072982	828.201865789400	233.902488503078	1337.280339460042	1129.797362541111	750.211298977967	1528.687174327771	1249.962514141269	648.194790192130	
